<svg xmlns="http://www.w3.org/2000/svg" xmlns:xlink="http://www.w3.org/1999/xlink" viewBox="0 0 990 156.43"><defs><style>.cls-1{fill:url(#linear-gradient);}</style><linearGradient id="linear-gradient" x1="19.09" y1="28.71" x2="138.02" y2="128.5" gradientUnits="userSpaceOnUse"><stop offset="0" stop-color="#f96f00"/><stop offset="0.51" stop-color="#bb4f64"/><stop offset="1" stop-color="#7f30c3"/></linearGradient></defs><g id="Layer_2" data-name="Layer 2"><g id="Layer_1-2" data-name="Layer 1"><path class="cls-1" d="M156.43,78.22a75.35,75.35,0,0,1-6.23,30.52,81.87,81.87,0,0,1-16.76,24.79,77.4,77.4,0,0,1-55.22,22.9,76.53,76.53,0,0,1-30.5-6.11A79,79,0,0,1,6.11,108.71,78.64,78.64,0,0,1,2.53,58.53,86.78,86.78,0,0,1,9.64,40.32a9.24,9.24,0,0,1,5.94-4.74,9.8,9.8,0,0,1,7.38,1,9.19,9.19,0,0,1,4.7,5.92,9.81,9.81,0,0,1-1,7.38A58.47,58.47,0,0,0,24.07,101a59.45,59.45,0,0,0,31.35,31.33,57.77,57.77,0,0,0,45.6,0A59.54,59.54,0,0,0,132.37,101a57.93,57.93,0,0,0,0-45.62,60.94,60.94,0,0,0-12.65-18.7A60.24,60.24,0,0,0,101,24.08a56.46,56.46,0,0,0-22.8-4.69,58.93,58.93,0,0,0-28.6,7.31A10.12,10.12,0,0,1,44.8,28a9.33,9.33,0,0,1-2.47-.33A9.17,9.17,0,0,1,36.54,23a9.77,9.77,0,0,1-.95-7.37,8.57,8.57,0,0,1,4.78-5.75A77,77,0,0,1,78.22,0a75.47,75.47,0,0,1,30.4,6.23,78.93,78.93,0,0,1,41.59,41.58A75.75,75.75,0,0,1,156.43,78.22Z"/><path d="M312.37,17.09l-.09-.08A81.65,81.65,0,0,0,289.41,4.37,77.26,77.26,0,0,0,263.52,0a79.89,79.89,0,0,0-22.87,3.33,74,74,0,0,0-20.86,10,8.51,8.51,0,0,0-3.56,5.29,7.67,7.67,0,0,0,1.26,6.23,7.83,7.83,0,0,0,5.4,3.75,8.19,8.19,0,0,0,1.47.13,9.18,9.18,0,0,0,5-1.54,60.74,60.74,0,0,1,54.34-7,64.14,64.14,0,0,1,18,10l.12.09A9.11,9.11,0,0,0,306.86,32a7.86,7.86,0,0,0,6.62-3.17,8.06,8.06,0,0,0,1.86-6.24A8.81,8.81,0,0,0,312.37,17.09Z"/><path d="M263.52,139.66a59.16,59.16,0,0,1-23.84-4.89A62.06,62.06,0,0,1,207,102.05a59.14,59.14,0,0,1-4.9-23.84,60.28,60.28,0,0,1,5.22-24.6,7.78,7.78,0,0,0,.14-6.42A8.39,8.39,0,0,0,203,42.6a8.19,8.19,0,0,0-3.4-.75,8.53,8.53,0,0,0-3.1.6,8.43,8.43,0,0,0-4.75,4.5,80.73,80.73,0,0,0-6.43,31.26,76.51,76.51,0,0,0,6.1,30.49A78.92,78.92,0,0,0,233,150.32a76.59,76.59,0,0,0,30.49,6.11,8.39,8.39,0,0,0,0-16.77Z"/><path d="M466.87,0H347.41a8.17,8.17,0,0,0-5.91,2.41A7.94,7.94,0,0,0,339,8.27a8.19,8.19,0,0,0,2.47,6.08,8.14,8.14,0,0,0,5.91,2.41H466.87A8.46,8.46,0,0,0,473,14.35a8.24,8.24,0,0,0,2.46-6.08A8,8,0,0,0,473,2.41,8.43,8.43,0,0,0,466.87,0Z"/><path d="M407,29.86a7.9,7.9,0,0,0-5.85,2.47,8.15,8.15,0,0,0-2.42,5.92V148a8.14,8.14,0,0,0,2.41,5.91,8,8,0,0,0,5.86,2.48A8.33,8.33,0,0,0,413,154a8,8,0,0,0,2.56-6V38.25a8,8,0,0,0-2.56-6A8.34,8.34,0,0,0,407,29.86Z"/><path d="M628,23A80.19,80.19,0,0,0,603.15,6.22,75.59,75.59,0,0,0,572.76,0a77,77,0,0,0-37.89,9.86,7.27,7.27,0,0,0-4.11,4.9,8.58,8.58,0,0,0,.84,6.42,7.94,7.94,0,0,0,5,4.05,8.23,8.23,0,0,0,2.14.29,8.74,8.74,0,0,0,4.19-1.13,61.58,61.58,0,0,1,29.86-7.63,59.14,59.14,0,0,1,23.84,4.9,62,62,0,0,1,32.72,32.71,60.56,60.56,0,0,1,0,47.68,62,62,0,0,1-32.72,32.72,60.53,60.53,0,0,1-47.67,0,62,62,0,0,1-32.72-32.72,61,61,0,0,1,2.73-53.48,8.54,8.54,0,0,0,.85-6.42,8,8,0,0,0-4.06-5.1,8.91,8.91,0,0,0-4.24-1.12,8.58,8.58,0,0,0-2.18.28,7.94,7.94,0,0,0-5.11,4.08,87.49,87.49,0,0,0-7.12,18.24,78.69,78.69,0,0,0,3.57,50.17,78.92,78.92,0,0,0,41.62,41.62,78.92,78.92,0,0,0,60.87,0A77.94,77.94,0,0,0,628,133.53a82.2,82.2,0,0,0,16.78-24.81A75.56,75.56,0,0,0,651,78.21a75.71,75.71,0,0,0-6.22-30.38A80.36,80.36,0,0,0,628,23Z"/><path d="M806.91,17.09l-.09-.08A81.51,81.51,0,0,0,784,4.37,77.2,77.2,0,0,0,758.07,0a80,80,0,0,0-22.88,3.33,74.21,74.21,0,0,0-20.86,10,8.51,8.51,0,0,0-3.56,5.29A7.67,7.67,0,0,0,712,24.88a7.86,7.86,0,0,0,5.41,3.75,8.11,8.11,0,0,0,1.47.13,9.12,9.12,0,0,0,5-1.54,60,60,0,0,1,34.21-10.46,59.35,59.35,0,0,1,20.13,3.48,64.33,64.33,0,0,1,18,10l.12.09A9.1,9.1,0,0,0,801.4,32,7.86,7.86,0,0,0,808,28.86a8,8,0,0,0,1.85-6.24A8.72,8.72,0,0,0,806.91,17.09Z"/><path d="M758.07,139.66a59.1,59.1,0,0,1-23.84-4.89,62.13,62.13,0,0,1-32.72-32.72,59.1,59.1,0,0,1-4.89-23.84,60.28,60.28,0,0,1,5.22-24.6,7.86,7.86,0,0,0,.14-6.42,8.45,8.45,0,0,0-4.44-4.59,8.23,8.23,0,0,0-3.41-.75,8.71,8.71,0,0,0-7.84,5.1,80.73,80.73,0,0,0-6.43,31.26A76.51,76.51,0,0,0,686,108.7a78.83,78.83,0,0,0,41.62,41.62,76.52,76.52,0,0,0,30.49,6.11,8.39,8.39,0,0,0,0-16.77Z"/><path d="M983.9,47.72A78.92,78.92,0,0,0,942.28,6.1a79,79,0,0,0-60.86,0,77.55,77.55,0,0,0-24.85,16.8A81.93,81.93,0,0,0,839.8,47.71a75.31,75.31,0,0,0-6.22,30.5,75.59,75.59,0,0,0,6.22,30.39,79,79,0,0,0,41.61,41.61,75.71,75.71,0,0,0,30.38,6.22,77,77,0,0,0,37.9-9.86,7.3,7.3,0,0,0,4.1-4.9,8.53,8.53,0,0,0-.84-6.42,8,8,0,0,0-7.1-4.34,8.66,8.66,0,0,0-4.19,1.12,61.51,61.51,0,0,1-29.87,7.63A59.16,59.16,0,0,1,888,134.77a62.06,62.06,0,0,1-32.71-32.72,60.44,60.44,0,0,1,0-47.68A62,62,0,0,1,888,21.66a60.44,60.44,0,0,1,47.68,0,62.06,62.06,0,0,1,32.72,32.71,59.16,59.16,0,0,1,4.89,23.84,59.46,59.46,0,0,1-7.63,29.64,8.53,8.53,0,0,0-.84,6.42,7.9,7.9,0,0,0,4.06,5.1,8.78,8.78,0,0,0,4.24,1.13,8.65,8.65,0,0,0,2.18-.29,7.93,7.93,0,0,0,5.11-4.08,87,87,0,0,0,7.11-18.24,78.69,78.69,0,0,0-3.57-50.17Z"/></g></g></svg>